<svg width="22" height="29" viewBox="0 0 22 29" fill="none" xmlns="http://www.w3.org/2000/svg">
<path d="M21.2714 13.0156L3.06897 0.415836C2.8589 0.270508 2.61308 0.185406 2.35811 0.169746C2.10314 0.154087 1.84875 0.208464 1.62247 0.326992C1.3962 0.44552 1.20667 0.623682 1.07439 0.842186C0.942125 1.06069 0.872158 1.31121 0.872072 1.56662L0.872072 26.7662C0.871902 27.0217 0.941683 27.2724 1.07385 27.4911C1.20602 27.7098 1.39553 27.8882 1.62185 28.0069C1.84818 28.1256 2.10267 28.1801 2.35776 28.1645C2.61285 28.1489 2.85881 28.0638 3.06897 27.9184L21.2714 15.3186C21.4569 15.1892 21.6083 15.0169 21.7129 14.8165C21.8175 14.616 21.8721 14.3932 21.8721 14.1671C21.8721 13.941 21.8175 13.7182 21.7129 13.5178C21.6083 13.3173 21.4569 13.145 21.2714 13.0156Z" fill="url(#paint0_linear)"/>
<defs>
<linearGradient id="paint0_linear" x1="21.8721" y1="14.1671" x2="0.87207" y2="14.1671" gradientUnits="userSpaceOnUse">
<stop stop-color="#1E3C72"/>
<stop offset="0.01" stop-color="#1E3C72"/>
<stop offset="1" stop-color="#2A5298"/>
</linearGradient>
</defs>
</svg>
